name D:\school\WTK\thesis\model\3dpredictsim\Results\MidTarsalJoint\Fal_s1_bCst_PF_Natali2010_ls150_MT_k300_MTP_Mu5_np_ig23.mot
datacolumns 128
datarows 4
range 0.56447883 0.59834756
endheader
time	pelvis_tilt	pelvis_list	pelvis_rotation	pelvis_tx	pelvis_ty	pelvis_tz	hip_flexion_l	hip_adduction_l	hip_rotation_l	hip_flexion_r	hip_adduction_r	hip_rotation_r	knee_angle_l	knee_angle_r	ankle_angle_l	ankle_angle_r	subtalar_angle_l	subtalar_angle_r	tmt_angle_l	tmt_angle_r	mtp_angle_l	mtp_angle_r	lumbar_extension	lumbar_bending	lumbar_rotation	arm_flex_l	arm_add_l	arm_rot_l	arm_flex_r	arm_add_r	arm_rot_r	elbow_flex_l	elbow_flex_r	pro_sup_l	pro_sup_r	glut_med1_l/activation	glut_med2_l/activation	glut_med3_l/activation	glut_min1_l/activation	glut_min2_l/activation	glut_min3_l/activation	semimem_l/activation	semiten_l/activation	bifemlh_l/activation	bifemsh_l/activation	sar_l/activation	add_long_l/activation	add_brev_l/activation	add_mag1_l/activation	add_mag2_l/activation	add_mag3_l/activation	tfl_l/activation	pect_l/activation	grac_l/activation	glut_max1_l/activation	glut_max2_l/activation	glut_max3_l/activation	iliacus_l/activation	psoas_l/activation	quad_fem_l/activation	gem_l/activation	peri_l/activation	rect_fem_l/activation	vas_med_l/activation	vas_int_l/activation	vas_lat_l/activation	med_gas_l/activation	lat_gas_l/activation	soleus_l/activation	tib_post_l/activation	flex_dig_l/activation	flex_hal_l/activation	tib_ant_l/activation	per_brev_l/activation	per_long_l/activation	per_tert_l/activation	ext_dig_l/activation	ext_hal_l/activation	ercspn_l/activation	intobl_l/activation	extobl_l/activation	glut_med1_r/activation	glut_med2_r/activation	glut_med3_r/activation	glut_min1_r/activation	glut_min2_r/activation	glut_min3_r/activation	semimem_r/activation	semiten_r/activation	bifemlh_r/activation	bifemsh_r/activation	sar_r/activation	add_long_r/activation	add_brev_r/activation	add_mag1_r/activation	add_mag2_r/activation	add_mag3_r/activation	tfl_r/activation	pect_r/activation	grac_r/activation	glut_max1_r/activation	glut_max2_r/activation	glut_max3_r/activation	iliacus_r/activation	psoas_r/activation	quad_fem_r/activation	gem_r/activation	peri_r/activation	rect_fem_r/activation	vas_med_r/activation	vas_int_r/activation	vas_lat_r/activation	med_gas_r/activation	lat_gas_r/activation	soleus_r/activation	tib_post_r/activation	flex_dig_r/activation	flex_hal_r/activation	tib_ant_r/activation	per_brev_r/activation	per_long_r/activation	per_tert_r/activation	ext_dig_r/activation	ext_hal_r/activation	ercspn_r/activation	intobl_r/activation	extobl_r/activation	
          0.56447883	         -2.93005514	          2.10715585	         -5.17227713	          0.70559854	          0.91992090	          0.00192278	         29.16955796	          3.32628895	         -2.85865193	        -16.39531671	         -0.73748032	          6.97800572	        -11.08666661	         -8.47813233	          4.67159209	         -2.19504105	         -2.74193838	          7.66272370	         -0.45596651	          4.63340885	          4.40583660	         12.69021681	         -2.10439764	         -0.36303011	          1.85571496	         -4.82534473	        -13.45247365	          6.14065566	          4.60628299	        -13.45342882	         15.62202296	         16.96562632	         34.81675194	         86.51662706	         86.51662706	          0.05940800	          0.05000449	          0.05940273	          0.05000070	          0.05000116	          0.05000433	          0.09070060	          0.05940877	          0.20745120	          0.05000066	          0.05000049	          0.12136432	          0.20344024	          0.18309501	          0.17629872	          0.10086774	          0.05940668	          0.05000681	          0.13364528	          0.05940813	          0.05940876	          0.10149174	          0.05000015	          0.05000017	          0.22026376	          0.05000304	          0.05000269	          0.05000013	          0.07521866	          0.07656218	          0.06301262	          0.05940792	          0.05940784	          0.05940795	          0.05000017	          0.05000060	          0.05000059	          0.48268218	          0.25821463	          0.17976503	          0.09781697	          0.43347846	          0.05000041	          0.05921817	          0.12189818	          0.10332862	          0.33930509	          0.09964908	          0.07334815	          0.30710690	          0.20156509	          0.10442613	          0.05000181	          0.05000037	          0.05000023	          0.05940857	          0.10508525	          0.05000025	          0.05000020	          0.05000025	          0.05000076	          0.05000050	          0.30438247	          0.05000100	          0.05000052	          0.05000477	          0.05000241	          0.05000100	          0.39336958	          0.60914114	          0.05000013	          0.05000053	          0.05000071	          0.21559521	          0.05000052	          0.05000039	          0.05000036	          0.28514683	          0.38824700	          0.34809133	          0.28526805	          0.31892562	          0.38275313	          0.05000009	          0.05941074	          0.13274126	          0.05000056	          0.05000019	          0.05000065	          0.05000002	          0.05000002	          0.05000009	
          0.57576841	         -2.92878751	          2.18777053	         -5.42596437	          0.72256570	          0.91909902	          0.00171295	         28.53621634	          3.72677947	         -2.66929291	        -16.27961748	         -1.02123993	          6.78393591	        -11.10983494	        -10.35153916	          4.03853771	         -2.73393143	         -3.14607002	          8.69288503	         -0.50257626	          3.77400578	          4.48086261	         14.42813726	         -1.91103491	         -0.56040529	          1.93054868	         -5.69008172	        -13.44971220	          5.84104684	          4.33268281	        -13.46464794	         15.96941892	         16.60553386	         35.94630999	         86.51662706	         86.51662706	          0.05000010	          0.05000011	          0.05000025	          0.05000038	          0.05000030	          0.05000019	          0.07633709	          0.05000075	          0.17459894	          0.05000149	          0.05940793	          0.11839564	          0.26306300	          0.29486966	          0.17686537	          0.08489468	          0.05000013	          0.07058942	          0.11248235	          0.05000050	          0.05000080	          0.12807412	          0.07058543	          0.06936831	          0.55510711	          0.20016936	          0.20777103	          0.07999521	          0.19702140	          0.19732248	          0.16813792	          0.05000002	          0.05000005	          0.05000000	          0.05734185	          0.05000329	          0.05000689	          0.55642445	          0.21732334	          0.20379230	          0.26541669	          0.44226628	          0.05940900	          0.05000003	          0.10259413	          0.08696529	          0.28557210	          0.08386847	          0.06173271	          0.25847294	          0.16964489	          0.08788904	          0.05000345	          0.05000071	          0.05000125	          0.05000077	          0.08844399	          0.11366087	          0.10244062	          0.06999995	          0.05001000	          0.05001368	          0.25618001	          0.07639238	          0.05003098	          0.05000411	          0.05000258	          0.05000286	          0.33107479	          0.52688600	          0.05156323	          0.05941070	          0.05940811	          0.18145327	          0.05000702	          0.16156181	          0.14205304	          0.23999036	          0.32676339	          0.30014599	          0.24751932	          0.30071590	          0.39848115	          0.05000003	          0.05000255	          0.12768424	          0.05000015	          0.05000003	          0.05000018	          0.05000007	          0.07334116	          0.05858408	
          0.58705798	         -2.92349157	          2.27131153	         -5.65154012	          0.73987460	          0.91828990	          0.00152956	         27.76287906	          4.03391786	         -2.41101368	        -16.11169978	         -1.30737311	          6.58126731	        -11.47225867	        -12.30171632	          3.48196536	         -3.42028809	         -3.57099624	          9.70247625	         -0.67058036	          2.77321643	          4.61781173	         16.27564155	         -1.69375782	         -0.76980524	          1.99424115	         -6.58845275	        -13.45556877	          5.59947954	          3.97387795	        -13.47390501	         16.24018726	         16.29143532	         37.06789867	         86.51662706	         86.51662706	          0.27354156	          0.05000055	          0.05000129	          0.05000033	          0.05000038	          0.29823378	          0.08973295	          0.08614004	          0.15543584	          0.05000014	          0.05000072	          0.09964632	          0.22140388	          0.24817360	          0.14885687	          0.10315074	          0.05000165	          0.05941163	          0.09466987	          0.05000220	          0.10866725	          0.10779215	          0.05940760	          0.05838318	          0.46719915	          0.16847018	          0.19020819	          0.06732701	          0.16582076	          0.16607416	          0.14151131	          0.05756440	          0.05796606	          0.05787193	          0.05000007	          0.05000043	          0.05000048	          0.54598654	          0.35466473	          0.17152026	          0.22338512	          0.49930826	          0.05000088	          0.05000002	          0.11839784	          0.07319328	          0.37889615	          0.07058690	          0.05195667	          0.21754092	          0.14277965	          0.07397079	          0.05000371	          0.05000090	          0.05000056	          0.05000025	          0.07443810	          0.15506603	          0.13236121	          0.05940976	          0.05940768	          0.05940670	          0.21561214	          0.07683404	          0.05001066	          0.05001536	          0.05003265	          0.05940623	          0.27864644	          0.51793534	          0.05896740	          0.05000317	          0.05000022	          0.15271798	          0.07497762	          0.13597686	          0.11955747	          0.20198495	          0.27501643	          0.25261420	          0.20832168	          0.25309438	          0.33537753	          0.05000008	          0.05000032	          0.16372608	          0.05000019	          0.05000014	          0.05000037	          0.05403548	          0.06172669	          0.05940830	
          0.59834756	         -2.91586464	          2.35945706	         -5.84134011	          0.75734137	          0.91751239	          0.00133979	         26.87170402	          4.28491413	         -2.14227120	        -15.85137553	         -1.59291329	          6.38324479	        -11.78872605	        -14.37898955	          2.98050551	         -4.26192919	         -4.00171752	         10.68059295	         -0.61566129	          1.66993398	          4.84827907	         18.16931955	         -1.47184902	         -0.99211619	          2.04854024	         -7.47623453	        -13.46824474	          5.42846961	          3.55605517	        -13.48578048	         16.44595517	         15.99946280	         38.17102933	         86.51662706	         86.51662706	          0.34609234	          0.27311896	          0.27049949	          0.11576377	          0.24284816	          0.25100525	          0.07552272	          0.07372983	          0.13082073	          0.07058879	          0.05000352	          0.08386615	          0.18634191	          0.20887249	          0.12528395	          0.13645238	          0.05000061	          0.05000347	          0.07967812	          0.19930602	          0.16268733	          0.11366561	          0.05000009	          0.05000010	          0.39321252	          0.14179099	          0.16008668	          0.05666500	          0.13956215	          0.14388786	          0.11910203	          0.05000028	          0.05000036	          0.05000005	          0.05000004	          0.05000067	          0.05000046	          0.62986132	          0.32173220	          0.17316335	          0.55688724	          0.46478172	          0.19473763	          0.07213313	          0.09964815	          0.06160224	          0.31976993	          0.05940864	          0.05000008	          0.33756732	          0.12016888	          0.06225669	          0.05000331	          0.05000027	          0.05000023	          0.05000042	          0.06265088	          0.14127109	          0.11140050	          0.05000192	          0.05000161	          0.05000073	          0.23064913	          0.07088368	          0.05000075	          0.05000129	          0.05000074	          0.05000055	          0.23451948	          0.47059521	          0.05000009	          0.05000060	          0.05000044	          0.12853558	          0.07887688	          0.12449591	          0.11840144	          0.16999817	          0.23146423	          0.21260966	          0.17533144	          0.21301399	          0.28226663	          0.08388457	          0.13376102	          0.15084977	          0.05000270	          0.09805847	          0.05000059	          0.06972313	          0.05195152	          0.05000029	
